<svg width="48" height="48" viewBox="0 0 48 48" fill="none" xmlns="http://www.w3.org/2000/svg">
<rect width="48" height="48" rx="24" fill="#FFDAD6"/>
<path d="M24 34.7042L22.3084 33.1876C20.3445 31.4181 18.7209 29.8917 17.4375 28.6084C16.1542 27.3251 15.1334 26.173 14.375 25.1521C13.6167 24.1313 13.0868 23.1931 12.7855 22.3376C12.4841 21.482 12.3334 20.607 12.3334 19.7126C12.3334 17.8848 12.9459 16.3584 14.1709 15.1334C15.3959 13.9084 16.9223 13.2959 18.75 13.2959C19.7612 13.2959 20.7237 13.5098 21.6375 13.9376C22.5514 14.3653 23.3389 14.9681 24 15.7459C24.6612 14.9681 25.4487 14.3653 26.3625 13.9376C27.2764 13.5098 28.2389 13.2959 29.25 13.2959C31.0778 13.2959 32.6042 13.9084 33.8292 15.1334C35.0542 16.3584 35.6667 17.8848 35.6667 19.7126C35.6667 20.607 35.516 21.482 35.2146 22.3376C34.9132 23.1931 34.3834 24.1313 33.625 25.1521C32.8667 26.173 31.8459 27.3251 30.5625 28.6084C29.2792 29.8917 27.6556 31.4181 25.6917 33.1876L24 34.7042V34.7042M24 31.5542C25.8667 29.882 27.4028 28.448 28.6084 27.2521C29.8139 26.0563 30.7667 25.016 31.4667 24.1313C32.1667 23.2466 32.6528 22.4591 32.925 21.7688C33.1973 21.0785 33.3334 20.3931 33.3334 19.7126C33.3334 18.5459 32.9445 17.5737 32.1667 16.7959C31.3889 16.0181 30.4167 15.6292 29.25 15.6292C28.3362 15.6292 27.4903 15.8869 26.7125 16.4021C25.9348 16.9174 25.4 17.5737 25.1084 18.3709V18.3709H22.8917V18.3709C22.6 17.5737 22.0653 16.9174 21.2875 16.4021C20.5098 15.8869 19.6639 15.6292 18.75 15.6292C17.5834 15.6292 16.6112 16.0181 15.8334 16.7959C15.0556 17.5737 14.6667 18.5459 14.6667 19.7126C14.6667 20.3931 14.8028 21.0785 15.075 21.7688C15.3473 22.4591 15.8334 23.2466 16.5334 24.1313C17.2334 25.016 18.1862 26.0563 19.3917 27.2521C20.5973 28.448 22.1334 29.882 24 31.5542V31.5542M24 23.5917V23.5917V23.5917V23.5917V23.5917V23.5917V23.5917V23.5917V23.5917V23.5917V23.5917V23.5917V23.5917V23.5917V23.5917V23.5917V23.5917V23.5917V23.5917V23.5917V23.5917" fill="#93000A"/>
</svg>
